<?xml version="1.0" encoding="UTF-8"?>
<svg width="400px" height="400px" viewBox="0 0 400 400" version="1.1" xmlns="http://www.w3.org/2000/svg" xmlns:xlink="http://www.w3.org/1999/xlink">
    <!-- Generator: Sketch 63.1 (92452) - https://sketch.com -->
    <title>400px Square</title>
    <desc>Created with Sketch.</desc>
    <g id="400px-Square" stroke="none" stroke-width="1" fill="none" fill-rule="evenodd">
        <g id="Group-3" transform="translate(58.000000, -0.000000)">
            <path d="M146.491358,-5.68434189e-14 C95.6264381,-5.68434189e-14 51.0343224,18.0275795 36.3505588,43.714696 C21.6667951,69.4018124 12.8987657,105.888002 20.4999471,139.560841 C25.5674014,162.009401 42.1205914,181.444627 70.1595171,197.866519 C38.9719538,213.496246 20.5505723,230.469547 14.8953724,248.786422 C6.41257248,276.261734 -6.73021091,298.069572 4.08258072,327.991276 C14.8953724,357.912981 58.6058695,398.027986 79.9795618,398.027986 C101.353254,398.027986 190.420943,406.537935 226.604344,388.201644 C262.787746,369.865354 284.998634,332.062772 284.998634,315.934059 C284.998634,299.805345 285.120846,264.641372 269.477674,239.286266 C259.048893,222.382862 240.387968,208.576279 213.494899,197.866519 C244.378712,187.56449 263.039637,174.713165 269.477674,159.312545 C279.134731,136.211614 275.874965,72.4889262 269.477674,60.2744402 C263.080384,48.0599542 222.094242,-5.68434189e-14 146.491358,-5.68434189e-14 Z" id="Path-12-Copy-3" fill="#0000FF"></path>
            <text id="places" font-family="CMUSerifRoman" font-size="40" font-weight="400" fill="#FFFFFF">
                <tspan x="90.2441406" y="115">places</tspan>
            </text>
        </g>
    </g>
</svg>