<?xml version="1.0" encoding="UTF-8"?>
<svg width="400px" height="400px" viewBox="0 0 400 400" version="1.1" xmlns="http://www.w3.org/2000/svg" xmlns:xlink="http://www.w3.org/1999/xlink">
    <!-- Generator: Sketch 63.1 (92452) - https://sketch.com -->
    <title>400px Square</title>
    <desc>Created with Sketch.</desc>
    <g id="400px-Square" stroke="none" stroke-width="1" fill="none" fill-rule="evenodd">
        <g id="Group-2" transform="translate(0.000000, 20.000000)">
            <path d="M216.828779,0 C176.007101,0 147.450293,40.0580039 120,50.3321129 C92.5497071,60.6062219 47.7631861,53.8809073 29.1160877,93.5335282 C10.4689893,133.186149 -6.0899778,154.987363 2.18950574,188.633702 C10.4689893,222.280041 11.8524837,266.011267 37.8467107,288.344846 C63.8409377,310.678424 77.824549,311.07859 100,320 C122.175451,328.92141 142.644263,323.549641 171.650383,339.645102 C200.656503,355.740563 245.886458,372.540119 276.697136,346.424172 C307.507814,320.308224 351.68511,304.934032 367.470695,288.344846 C383.256281,271.755659 400,185.452391 400,163.509499 C400,141.566608 389.15117,99.7802328 378.310933,86.9905882 C367.470695,74.2009436 316.612238,42.6454256 303.189765,29.6883436 C289.767291,16.7312615 257.650457,0 216.828779,0 Z" id="Path-Copy-3" fill="#0000FF"></path>
            <text id="bibliography" font-family="CMUSerifRoman" font-size="40" font-weight="400" fill="#FFFFFF">
                <tspan x="104.220703" y="191">bibliography</tspan>
            </text>
        </g>
    </g>
</svg>