<?xml version="1.0" encoding="UTF-8"?>
<svg width="400px" height="400px" viewBox="0 0 400 400" version="1.1" xmlns="http://www.w3.org/2000/svg" xmlns:xlink="http://www.w3.org/1999/xlink">
    <!-- Generator: Sketch 63.1 (92452) - https://sketch.com -->
    <title>400px Square</title>
    <desc>Created with Sketch.</desc>
    <g id="400px-Square" stroke="none" stroke-width="1" fill="none" fill-rule="evenodd">
        <g id="Group-7" transform="translate(1.000000, 0.000000)">
            <path d="M196.353369,399.985884 C150.383184,398.907978 101.128131,348.962511 79.1045622,321.775072 L77.779548,320.134904 C56.3027095,293.473059 32.2382275,259.664455 22.6859948,207.693805 L22.3952108,206.080662 C12.8578978,152.115409 -18.9600821,36.1744221 16.0051733,25.0588183 C30.8449583,20.3411874 42.430432,23.5765153 51.8911814,46.4428558 C62.5988503,72.3229623 60.1731614,88.9868114 68.6779015,143.043275 L69.3578944,147.307608 C76.1687206,189.547165 81.5151062,208.880941 95.2694906,211.090701 C104.626215,212.59394 109.385597,203.169662 109.547637,182.817868 C91.6684519,107.352578 92.264552,61.9026032 111.335937,46.4679445 C138.512661,24.4735558 147.701437,84.8111023 148.552373,90.8998429 L148.618849,91.3904893 C148.618849,91.3904893 168.59779,226.586734 175.14826,230.522653 L175.74901,230.877 C182.339331,234.686387 192.497445,237.829804 189.83449,206.080662 C187.089176,173.349588 172.433256,108.787823 176.908202,65.5108616 C181.383147,22.2338998 188.0313,4.59539458 203.243555,0.479712022 C218.45581,-3.63597053 239.747558,18.616311 240.671581,71.6760796 C241.595603,124.735848 221.861984,217.115834 240.671581,217.115834 C259.481177,217.115834 259.481177,150.014472 264.545372,118.168586 C270.23781,82.3720281 281.82538,54.4032803 295.307561,36.3070588 L296.115084,35.2369335 C309.282451,18.0165106 321.40563,13.5850332 338.607911,41.4472411 C356.161259,69.8780655 294.586286,190.15329 290.620434,211.090701 C286.654582,232.028113 282.914033,251.974068 290.620434,255.605122 C298.326836,259.236175 309.619546,244.070664 318.071918,217.115834 C330.239346,165.238417 341.883769,130.589843 353.005186,113.170111 C370.053952,86.4662357 387.929452,100.296409 395.96317,118.168586 C403.916552,135.862041 385.033707,160.6157 372.850241,194.188264 L372.48313,195.208316 C360.316762,229.300137 339.134392,270.045119 318.071918,305.098963 C297.009444,340.152807 242.323555,401.063791 196.353369,399.985884 Z" id="Path-4-Copy-4" fill="#0000FF"></path>
            <text id="species" font-family="CMUSerifRoman" font-size="40" font-weight="400" fill="#FFFFFF">
                <tspan x="126.439453" y="297">species</tspan>
            </text>
        </g>
    </g>
</svg>