<?xml version="1.0" encoding="UTF-8"?>
<svg width="400px" height="400px" viewBox="0 0 400 400" version="1.1" xmlns="http://www.w3.org/2000/svg" xmlns:xlink="http://www.w3.org/1999/xlink">
    <!-- Generator: Sketch 63.1 (92452) - https://sketch.com -->
    <title>400px Square</title>
    <desc>Created with Sketch.</desc>
    <g id="400px-Square" stroke="none" stroke-width="1" fill="none" fill-rule="evenodd">
        <g id="Group" transform="translate(8.000000, 2.000000)">
            <path d="M47.5885496,339.064739 C24.8098204,314.958758 -3.10173005,279.846759 0.280145545,259.396001 C3.8400146,237.868887 21.1945889,228.355949 38.9100081,239.849132 C56.6254274,251.342316 60.074081,256.020649 74.4637614,262.677327 C80.9528369,265.679179 83.2840641,267.077475 88.2773949,259.396001 C92.1901463,252.587 86.5167869,232.788333 71.257317,200 C61.9410298,181.427263 43.3071985,153.238555 62.4472015,138.443245 C75.2072036,128.579705 93.386236,133.314624 116.984299,152.648002 C150.789635,182.483363 159.63169,155.376822 153.673457,141.358792 C147.715223,127.340762 142.81593,113.315715 138.090397,93.9545584 C133.364864,74.5934016 131.652586,43.8539839 145.952012,31.114153 C160.251437,18.3743221 186.199876,8.57764433 198.293223,35.2575738 C210.386571,61.9375032 213.356422,86.905702 222.276874,89.0409565 C231.197325,91.176211 235.569502,82.4128658 244.658079,68.5779587 L244.940335,68.1460117 C254.388083,53.612101 285.505658,-3.56199285 321.598363,0.175072001 C357.691068,3.91213685 362.005543,18.4124617 362.005543,41.1341826 C362.005543,63.8559036 344.229115,81.4348239 329.514912,92.7404528 C319.705444,100.277539 305.536111,110.400713 287.006914,123.109975 C278.122217,130.60075 273.410004,135.268657 278.122974,139.501292 L278.45573,139.793196 C283.634989,144.225297 287.324089,142.031395 304.204888,133.783436 C341.028094,115.791618 353.872538,117.358176 367.298017,126.068187 C386.410687,138.467861 385.126462,156.814207 380.134561,164.816715 L379.352826,166.022928 C374.177245,173.933834 365.199692,185.974217 321.971327,195.796347 C276.94178,206.027732 255.796202,201.336337 251.731755,212.704188 C247.707952,223.958361 251.609423,231.660826 265.481377,232.554338 L267.076694,232.643421 C280.34369,233.348917 292.320661,233.570034 302.981615,244.083226 C318.599189,259.484338 316.538417,279.023564 297.959236,291.235739 C279.380054,303.447914 235.403638,313.759053 211.196815,317.409183 C186.989991,321.059312 184.807571,336.724906 197.79533,339.064739 C210.783088,341.404572 248.556053,332.930649 257.510879,354.975495 C263.418043,369.517656 261.315415,379.430511 254.492011,385.774293 C247.668608,392.118074 222.276874,396.444483 186.79533,396.444483 C153.578719,396.987226 124.754675,395.323462 100.323197,391.453191 C84.1303824,376.581533 68.6099334,361.302262 53.76185,345.615378 L47.5885496,339.064739 Z" id="Path-8-Copy-3" fill="#0000FF"></path>
            <text id="about" font-family="CMUSerifRoman" font-size="40" font-weight="400" fill="#FFFFFF">
                <tspan x="123.309524" y="237">about</tspan>
            </text>
        </g>
    </g>
</svg>