<?xml version="1.0" encoding="UTF-8"?>
<svg width="400px" height="400px" viewBox="0 0 400 400" version="1.1" xmlns="http://www.w3.org/2000/svg" xmlns:xlink="http://www.w3.org/1999/xlink">
    <!-- Generator: Sketch 63.1 (92452) - https://sketch.com -->
    <title>400px Square</title>
    <desc>Created with Sketch.</desc>
    <g id="400px-Square" stroke="none" stroke-width="1" fill="none" fill-rule="evenodd">
        <g id="Group-5" transform="translate(41.000000, 0.000000)">
            <path d="M164.722485,11.8564976 C95.5933758,29.0194527 56.69613,8.47458947 39.0203564,52.1536777 C21.3445828,95.832766 -3.12638804e-13,152.089989 -3.12638804e-13,172.773276 C-3.12638804e-13,193.456563 39.0203564,233.692472 21.7473938,291.225122 C4.47443118,348.757772 95.4181105,381.150774 139.449767,397.293827 C183.481423,413.43688 198.079844,353.366517 231.664081,322.670589 C265.248317,291.974661 275.580363,289.775828 287.92055,256.661732 C300.260737,223.547636 317.794486,200.522407 317.794486,180.996654 C317.794486,161.470901 287.92055,118.579407 287.92055,96.7994451 C287.92055,75.0194834 284.018715,26.2503545 265.308514,11.8564976 C246.598313,-2.53735928 233.851594,-5.30645751 164.722485,11.8564976 Z" id="Path-13-Copy-3" fill="#0000FF"></path>
            <text id="writing" font-family="CMUSerifRoman" font-size="40" font-weight="400" fill="#FFFFFF">
                <tspan x="96.3320312" y="200">writing</tspan>
            </text>
        </g>
    </g>
</svg>