<?xml version="1.0" encoding="UTF-8"?>
<svg width="400px" height="400px" viewBox="0 0 400 400" version="1.1" xmlns="http://www.w3.org/2000/svg" xmlns:xlink="http://www.w3.org/1999/xlink">
    <!-- Generator: Sketch 63.1 (92452) - https://sketch.com -->
    <title>400px Square</title>
    <desc>Created with Sketch.</desc>
    <g id="400px-Square" stroke="none" stroke-width="1" fill="none" fill-rule="evenodd">
        <g id="Group-4" transform="translate(58.000000, 0.000000)">
            <path d="M8.92618184,32.5093168 C-2.68775948,42.4933612 -2.47507095,62.9286333 6.707719,93.6035645 L7.54929485,96.3994112 C16.4986177,126.388327 19.9046022,150.170373 9.84640423,198.389632 L9.5310243,199.888775 C-1.12531778,250.122152 -3.05137536,284.343761 11.2886935,325.596857 C25.6287623,366.849953 71.9630268,395.731457 108.909929,399.717507 C145.856831,403.703557 219.112254,364.35862 236.713627,354.06204 C254.315001,343.76546 272.273523,309.725676 280.999887,278.099227 C292.34805,236.970746 273.155274,181.145605 257.230934,164.270428 C241.306593,147.39525 220.468893,136.647057 199.700813,127.474129 C178.932733,118.3012 177.639028,130.82938 137.562907,54.7462142 C97.4867872,-21.3369517 32.8219069,-7.59200713 8.92618184,32.5093168 Z" id="Path-7-Copy-3" fill="#0000FF"></path>
            <text id="contact" font-family="CMUSerifRoman" font-size="40" font-weight="400" fill="#FFFFFF">
                <tspan x="63.7413105" y="244.637262">contact</tspan>
            </text>
        </g>
    </g>
</svg>