<?xml version="1.0" encoding="utf-8"?>
<!-- Generator: Adobe Illustrator 15.0.0, SVG Export Plug-In . SVG Version: 6.00 Build 0)  -->
<!DOCTYPE svg PUBLIC "-//W3C//DTD SVG 1.1//EN" "http://www.w3.org/Graphics/SVG/1.1/DTD/svg11.dtd">
<svg version="1.1" id="Layer_1" xmlns="http://www.w3.org/2000/svg" xmlns:xlink="http://www.w3.org/1999/xlink" x="0px" y="0px"
	 width="1133.858px" height="283.465px" viewBox="0 0 1133.858 283.465" enable-background="new 0 0 1133.858 283.465"
	 xml:space="preserve">
<polygon points="15.564,11.12 80.705,14.574 78.743,26.722 35.111,30.409 33.387,52.675 75.789,52.675 76.403,75.896 30.928,79.582 
	29.698,115.021 15.564,115.021 10.034,61.087 "/>
<polygon points="100.986,7.155 164.897,10.61 167.97,33.112 118.176,32.522 116.962,51.169 158.137,51.74 160.596,62.845 
	119.647,71.718 123.391,93.569 167.97,88.042 167.97,102.791 109.588,107.092 97.298,61.616 "/>
<polygon points="528.575,154.692 594.637,154.692 594.637,162.869 546.645,165.598 547.949,195.517 584.805,199.525 
	584.359,210.972 551.933,215.845 549.776,235.827 593.821,242.838 592.179,256.936 528.575,254.878 523.967,195.633 "/>
<path d="M274.901,60.405c5.53-11.677-8.604-32.571-24.582-35.411c-15.977-2.839-58.995,2.839-58.995,2.839s0.613,53.465,0,57.768
	c-0.614,4.302,6.144,42.403,6.144,42.403l20.078,1.645l-0.411-42.819l25.604,3.05l15.98,38.716l13.725-3.665l-17.208-45.476
	C255.234,79.456,269.369,72.082,274.901,60.405z M253.39,66.55l-12.905,8.412h-22.737l-8.604-19.568l3.073-15.269l27.04-4.301
	l9.004,7.035L253.39,66.55z"/>
<path d="M697.827,206.219c1.463-15.747-5.324-39.717-21.303-42.557c-15.976-2.838-57.15,2.84-57.15,2.84s0.614,55.308,0,59.609
	c-0.614,4.303,2.302,39.951,2.302,39.951l16.399-1.053l4.803-41.353l25.811,1.844l11.061,43.326l15.464-4.708l-10.811-44.61
	C684.402,219.509,696.634,219.084,697.827,206.219z M677.84,198.943l-10.072,12.729l-24.279-1.449l-5.426-12.342l2.205-17.247
	l15.976-2.145l17.976,1.842L677.84,198.943z"/>
<path d="M343.114,10.326h-21.509c-33.777,97.59-31.491,93.811-35.644,100.731l12.906,5.257l13.822-29.683l43.33,3.53l6.144,20.896
	l17.822-3.688L343.114,10.326z M317.164,73.431l15.81-45.338l18.128,44.247L317.164,73.431z"/>
<path d="M189.519,163.74h-25.059c-15.366,46.929-28.314,75.969-38.715,98.172l16.709,7.953l14.051-32.415l28.303,3.16l10.239,28.217
	l23.25-9.075L189.519,163.74z M161.445,223.066l12.542-29l6.157,30.181L161.445,223.066z"/>
<polygon points="394.735,17.923 394.735,80.606 399.037,115.021 467.839,112.562 467.839,99.656 430.549,98.608 418.262,14.037 "/>
<path d="M116.985,172.22c-8.296-11.523-34.566-9.599-34.566-9.599H46.79v50.217c0,0,5.99,49.719,5.53,49.258
	c-0.46-0.461,16.271,0,16.271,0l0.923-35.95c0,0,35.027,3.228,46.09-4.608C126.664,213.701,125.282,183.744,116.985,172.22z
	 M99.934,208.062l-24.89,0.195l-6.915-6.957v-25.854l21.357-0.154l13.211,4.762l2.769,18.789L99.934,208.062z"/>
<path d="M1028.563,173.146c-8.294-11.521-24.644-20.298-24.644-20.298l-47.628,1.843l2.305,55.505c0,0,3.098,51.944,2.636,51.483
	c-0.46-0.462,19.436,0,19.436,0l2.509-39.478l16.441,1.668l21.816-5.838C1021.434,218.033,1036.86,184.669,1028.563,173.146z
	 M1000.08,207.415h-10.142l-11.982-8.739l1.076-26.117l24.42,3.33l9.301,3.747l-1.019,22.739L1000.08,207.415z"/>
<path d="M313.279,184.765c0.251-27.885-29.665-29.633-29.665-29.633l-37.451-2.19L238.2,209.5l-2.741,46.893l13.665,4.051
	l7.052-41.602l19.9,2.068l10.831,12.175l12.486,31.202l13.173-4.307l-15.38-44.763C297.186,215.218,313.069,207.608,313.279,184.765
	z M288.806,200.6c-1.896,0.813-19.825-0.829-19.825-0.829s-9.212-3.179-10.538-4.179c-1.326-1,2.535-21.568,2.535-21.568
	l14.503-6.473l12.563,0.734l9.575,10.515c0,0-2.427,11.821-2.846,12.748C294.206,192.808,277.263,205.56,288.806,200.6z"/>
<polygon points="374.325,173.526 404.129,172.531 404.129,189.197 374.325,192.27 379.549,266.017 354.034,267.768 346.444,186.744 
	327.313,187.355 327.313,172.413 "/>
<path d="M425.024,163.786l-3.687,46.113v47.294c0,0,9.832,1.231,10.446,0c0.613-1.229,9.217-65.754,9.217-65.754l26.425,38.715
	l15.367,32.726c0,0,20.892-1.683,20.892-2.765c0-1.078,5.508-65.605,5.508-65.605l-9.809-33.872l-15.978,0.688l-0.613,63.296
	l-24.585-46.091l-15.977-17.894L425.024,163.786z"/>
<path d="M743.817,152.958c0,0-15.672,5.48-18.9,11.01c-3.223,5.533-8.756,29.96-7.832,32.266
	c0.92,2.303,26.732,18.895,26.732,18.895s10.924,1.843,21.062,4.607c10.139,2.769,5.419,17.604,5.419,17.604l-5.419,3.141h-20.602
	l-8.298-8.297l-17.053,8.297c0,0,7.835,11.521,10.139,11.981c2.306,0.46,30.881,9.219,30.881,9.219l19.221-2.764
	c0,0,8.759-6.455,9.218-7.837c0.46-1.381,6.451-12.906,6.451-21.664c0-8.756-1.842-14.7-12.902-23.481
	c-11.063-8.781-36.735-10.624-39.503-13.853c-2.763-3.225-4.606-10.139-4.606-10.139s6.453-9.679,9.217-10.601
	c2.766-0.921,14.468-5.026,18.968-1.781c7.906,5.703,12.134,8.282,12.134,8.282l5.414-11.63l-12.924-9.671
	C770.633,156.542,752.209,149.449,743.817,152.958z"/>
<path d="M808.63,161.347l3.226,54.739l2.477,55.506c0,0,24.559,1.997,25.019,0.615c0.46-1.385-1.972-47.627-1.972-47.627
	l32.262-4.612l8.758,47.94l17.055-1.846c0,0-4.609-57.154-4.609-58.998c0-1.842,0.923-42.322,0.923-42.322h-12.906l-5.532,40.018
	h-33.645l-0.993-44.706L808.63,161.347z"/>
<path d="M936.012,150.728c-5.069,2.687-23.045,0-23.045,0v38.175l5.993,63.147l17.052-4.153l-3.225-38.714l3.225-42.864V150.728z"/>
<path d="M1076.126,152.849c0,0-28.575,9.416-29.497,29.694c-0.921,20.279,25.352,32.265,25.352,32.265l28.113,11.662l7.373,5.988
	l-4.146,11.062l-33.211,4.339l-14.369-16.352l-9.134,8.327l18.919,22.127h28.576c0,0,25.352-1.847,30.419-19.361
	c5.07-17.516-9.678-32.418-9.678-32.418l-31.341-13.811l-12.896-4.509l-0.008-9.911l10.414-5.451l20.004,1.434l7.836,9.218
	l14.281-12.634l-15.202-15.296C1107.931,159.222,1095.486,151.006,1076.126,152.849z"/>
</svg>
